HIERARCHY
ROOT Bip001_Pelvis
{
  OFFSET -1.81647 95.4634 -9.87528
  CHANNELS 6 Xposition Yposition Zposition Zrotation Xrotation Yrotation
  JOINT Bip001_Spine
  {
    OFFSET 1.44608e-005 10.4157 -0.0118244
    CHANNELS 3 Zrotation Xrotation Yrotation
    JOINT Bip001_L_Thigh
    {
      OFFSET 11.2582 -10.4157 0.0118432
      CHANNELS 3 Zrotation Xrotation Yrotation
      JOINT Bip001_L_Calf
      {
        OFFSET -0.720717 -44.8687 0.366937
        CHANNELS 3 Zrotation Xrotation Yrotation
        JOINT Bip001_L_Foot
        {
          OFFSET -0.664439 -41.3745 -3.62995
          CHANNELS 3 Zrotation Xrotation Yrotation
          JOINT Bip001_L_Toe0
          {
            OFFSET 0.0541047 -10.4146 13.4033
            CHANNELS 3 Zrotation Xrotation Yrotation
            End Site
            {
              OFFSET -1.04503e-005 0 7.70137
            }
          }
        }
      }
    }
    JOINT Bip001_R_Thigh
    {
      OFFSET -11.2582 -10.4156 0.0118122
      CHANNELS 3 Zrotation Xrotation Yrotation
      JOINT Bip001_R_Calf
      {
        OFFSET 0.72059 -44.8687 0.36676
        CHANNELS 3 Zrotation Xrotation Yrotation
        JOINT Bip001_R_Foot
        {
          OFFSET 0.664321 -41.3745 -3.62979
          CHANNELS 3 Zrotation Xrotation Yrotation
          JOINT Bip001_R_Toe0
          {
            OFFSET -0.05417 -10.4146 13.4033
            CHANNELS 3 Zrotation Xrotation Yrotation
            End Site
            {
              OFFSET -1.04873e-005 0 7.70137
            }
          }
        }
      }
    }
    JOINT Bip001_Spine1
    {
      OFFSET 1.90638e-005 14.8539 1.10727
      CHANNELS 3 Zrotation Xrotation Yrotation
      JOINT Bip001_Spine2
      {
        OFFSET 2.28934e-005 14.7848 -1.7233
        CHANNELS 3 Zrotation Xrotation Yrotation
        JOINT Bip001_Neck
        {
          OFFSET 2.24514e-005 15.6905 -0.498826
          CHANNELS 3 Zrotation Xrotation Yrotation
          JOINT Bip001_L_Clavicle
          {
            OFFSET 6.17691 -0.000591152 0.00852867
            CHANNELS 3 Zrotation Xrotation Yrotation
            JOINT Bip001_L_UpperArm
            {
              OFFSET 11.773 -0.0611878 0.00197697
              CHANNELS 3 Zrotation Xrotation Yrotation
              JOINT Bip001_L_Forearm
              {
                OFFSET 26.4514 0.0817568 -2.19579
                CHANNELS 3 Zrotation Xrotation Yrotation
                JOINT Bip001_L_Hand
                {
                  OFFSET 32.8677 0.156744 1.67112
                  CHANNELS 3 Zrotation Xrotation Yrotation
                  JOINT Bip001_L_Finger0
                  {
                    OFFSET 6.16267 -2.25226 6.01674
                    CHANNELS 3 Zrotation Xrotation Yrotation
                    End Site
                    {
                      OFFSET 4.30498 -1.46663 0.618148
                    }
                  }
                  JOINT Bip001_L_Finger1
                  {
                    OFFSET 11.2957 -0.718374 -0.201963
                    CHANNELS 3 Zrotation Xrotation Yrotation
                    End Site
                    {
                      OFFSET 6.31952 -0.405163 -0.0802303
                    }
                  }
                }
              }
            }
          }
          JOINT Bip001_R_Clavicle
          {
            OFFSET -6.17691 -0.000574027 0.00851165
            CHANNELS 3 Zrotation Xrotation Yrotation
            JOINT Bip001_R_UpperArm
            {
              OFFSET -11.773 -0.0611516 0.00194365
              CHANNELS 3 Zrotation Xrotation Yrotation
              JOINT Bip001_R_Forearm
              {
                OFFSET -26.4514 0.0822336 -2.19736
                CHANNELS 3 Zrotation Xrotation Yrotation
                JOINT Bip001_R_Hand
                {
                  OFFSET -32.8677 0.156816 1.67144
                  CHANNELS 3 Zrotation Xrotation Yrotation
                  JOINT Bip001_R_Finger0
                  {
                    OFFSET -6.16269 -2.25224 6.01673
                    CHANNELS 3 Zrotation Xrotation Yrotation
                    End Site
                    {
                      OFFSET -4.30499 -1.46661 0.618137
                    }
                  }
                  JOINT Bip001_R_Finger1
                  {
                    OFFSET -11.2957 -0.718342 -0.201995
                    CHANNELS 3 Zrotation Xrotation Yrotation
                    End Site
                    {
                      OFFSET -6.31952 -0.405145 -0.0802479
                    }
                  }
                }
              }
            }
          }
          JOINT Bip001_Head
          {
            OFFSET 1.11782e-005 11.4912 2.09908
            CHANNELS 3 Zrotation Xrotation Yrotation
            End Site
            {
              OFFSET 2.95144e-005 21.2823 -2.83069e-005
            }
          }
        }
      }
    }
  }
}
MOTION
Frames:	6
Frame Time:	0.0333333
-1.77281 95.4661 -9.66729 -0.0907945 -6.51543 1.64665 -0.559533 3.09233 0.831702 0.34107 -2.8593 -8.2582 -0.0177227 11.3338 -0.163428 0.828857 -4.95213 5.07968 -1.5564e-016 -6.21203e-018 1.98784e-016 0.328463 -4.81877 3.25889 0.00769529 10.5578 0.16175 -1.56058 -2.66805 -7.10252 4.27433e-007 1.55064e-007 4.27948e-007 -0.364132 6.19407 1.59746 -0.378011 6.19501 1.59339 3.74594 4.84939 -3.41766 -32.2997 -2.38702 -6.31133 -41.4956 44.5216 -9.89156 -2.48116 0.651793 -25.8598 3.18702 17.0756 3.33348 -4.77083e-015 0 2.38542e-015 -4.77083e-015 3.18056e-015 7.95139e-016 21.081 -3.28864 1.47909 49.1414 48.5249 9.35693 1.75274 0.350172 17.9313 -7.58953 -7.29764 -5.61378 7.95139e-016 -3.18055e-015 -7.95139e-016 7.95139e-016 -6.36111e-015 -7.95139e-016 0.213071 -12.1231 -1.66476 
-1.77306 95.466 -9.66771 -0.0914809 -6.51466 1.64736 -0.559567 3.09236 0.832325 0.341433 -2.86154 -8.26204 -0.0177194 11.3349 -0.163429 0.828349 -4.9519 5.08191 7.29911e-017 -6.21203e-018 -0 0.329562 -4.82043 3.25868 0.00769529 10.5578 0.16175 -1.56072 -2.66753 -7.10269 4.27433e-007 1.55064e-007 4.27948e-007 -0.364328 6.19402 1.59928 -0.378207 6.19496 1.59522 3.7475 4.8464 -3.42036 -32.3014 -2.38687 -6.30782 -41.4947 44.5133 -9.89194 -2.48147 0.652167 -25.8632 3.18818 17.0791 3.3327 1.59028e-015 -3.18055e-015 -2.38542e-015 1.59028e-015 -3.18056e-015 -7.95139e-016 21.0788 -3.28533 1.48038 49.1447 48.5279 9.35315 1.75274 0.350296 17.9312 -7.59311 -7.30863 -5.61392 1.59028e-015 1.59028e-014 7.95139e-016 7.95139e-016 9.54167e-015 -0 0.213071 -12.1231 -1.66476 
-1.77285 95.466 -9.66722 -0.0918252 -6.51513 1.64707 -0.55958 3.09231 0.832591 0.341937 -2.86097 -8.26008 -0.0177206 11.3345 -0.163428 0.827968 -4.95175 5.08099 -5.20887e-016 3.10602e-018 3.97569e-016 0.329927 -4.82012 3.2588 0.00769529 10.5578 0.16175 -1.56079 -2.66702 -7.10203 4.27433e-007 1.55064e-007 4.27948e-007 -0.364404 6.19388 1.60002 -0.378285 6.19481 1.59597 3.74764 4.8446 -3.42081 -32.3016 -2.38706 -6.30689 -41.4944 44.5104 -9.89232 -2.48171 0.652465 -25.8641 3.18779 17.0814 3.33254 3.18055e-015 0 -7.95139e-016 -1.59028e-015 0 1.59028e-015 21.0783 -3.28384 1.48022 49.1451 48.5304 9.35284 1.7527 0.350386 17.9309 -7.59451 -7.31111 -5.61395 -1.59028e-015 -6.36111e-015 -1.59028e-015 -2.38542e-015 -3.18056e-015 -0 0.213071 -12.1231 -1.66476 
-1.77226 95.466 -9.66605 -0.091841 -6.51615 1.64627 -0.559577 3.09219 0.832555 0.34264 -2.85773 -8.25227 -0.0177256 11.3328 -0.163427 0.828214 -4.95165 5.07778 -2.6668e-016 3.10602e-018 3.97569e-016 0.329705 -4.81839 3.25917 0.00769529 10.5578 0.16175 -1.5608 -2.66652 -7.10094 4.27433e-007 1.55064e-007 4.27948e-007 -0.364379 6.1937 1.59984 -0.378261 6.19462 1.59581 3.74666 4.844 -3.41941 -32.3006 -2.38754 -6.30802 -41.4949 44.5102 -9.8924 -2.4819 0.652685 -25.8628 3.18617 17.0826 3.33289 1.59028e-015 3.18055e-015 -7.95139e-016 -1.59028e-015 0 -1.59028e-015 21.0791 -3.28404 1.47885 49.1431 48.5323 9.3552 1.75262 0.350442 17.9304 -7.59427 -7.30928 -5.61393 -0 -1.27222e-014 -0 7.95139e-016 -9.54167e-015 -0 0.213071 -12.1231 -1.66476 
-1.77141 95.4661 -9.66438 -0.0916245 -6.51901 1.64427 -0.559559 3.09201 0.832272 0.344129 -2.84953 -8.23502 -0.0177381 11.3285 -0.163425 0.829262 -4.95161 5.07047 1.42682e-016 -6.21203e-018 1.98784e-016 0.328941 -4.81405 3.25968 0.00769529 10.5578 0.16175 -1.56078 -2.66601 -7.09981 4.27433e-007 1.55064e-007 4.27948e-007 -0.364272 6.1935 1.5989 -0.378155 6.1944 1.59488 3.74485 4.84462 -3.41659 -32.2986 -2.38826 -6.31069 -41.4955 44.5126 -9.89228 -2.48203 0.652823 -25.8598 3.18083 17.0829 3.33369 8.82781e-032 6.36111e-015 -7.95139e-016 4.41391e-032 3.18056e-015 -7.95139e-016 21.081 -3.28578 1.47651 49.1375 48.5331 9.3622 1.7525 0.350465 17.9298 -7.59241 -7.30206 -5.61384 7.95139e-016 9.54166e-015 1.59028e-015 -4.41391e-032 3.18056e-015 7.95139e-016 0.213071 -12.1231 -1.66476 
-1.77039 95.4663 -9.66242 -0.091411 -6.52319 1.63957 -0.55953 3.0918 0.831798 0.345804 -2.83903 -8.21393 -0.0177523 11.3236 -0.163422 0.830204 -4.95161 5.05913 -6.52261e-017 -3.10602e-018 -1.98784e-016 0.327727 -4.80671 3.26027 0.00769529 10.5578 0.16175 -1.56063 -2.66551 -7.09638 4.27433e-007 1.55064e-007 4.27948e-007 -0.364034 6.19335 1.59673 -0.377917 6.19421 1.59272 3.74151 4.84647 -3.4094 -32.2945 -2.38915 -6.31864 -41.4971 44.521 -9.89271 -2.48215 0.652886 -25.8532 3.17448 17.0823 3.33484 -4.77083e-015 3.18055e-015 7.95139e-016 -3.18055e-015 0 -0 21.0862 -3.28895 1.4711 49.1283 48.5326 9.37385 1.75235 0.350456 17.929 -7.58863 -7.28497 -5.61362 1.59028e-015 -3.18055e-015 -0 -0 -3.18056e-015 -0 0.213071 -12.1231 -1.66476 
